# Blender 4.4.3
# www.blender.org
mtllib car.mtl
o Cube
v 1.500000 -1.000000 -2.911414
v 1.500000 -1.000000 2.893697
v -1.500000 -1.000000 -2.911414
v -1.500000 -1.000000 2.893697
v -1.500000 -1.000000 0.000000
v 0.000000 -1.000000 -2.911414
v 1.500000 0.202350 -3.000000
v -1.500000 0.006578 3.000000
v 1.500000 0.006578 3.000000
v -1.500000 0.202350 -3.000000
v 1.500000 1.336666 0.000000
v 0.000000 -1.000000 2.893697
v -1.500000 1.336666 0.000000
v 1.500000 -1.000000 0.000000
v 0.000000 0.202350 -3.000000
v 1.500000 0.202350 0.000000
v 0.000000 -1.000000 0.000000
v -1.500000 0.202350 0.000000
v 0.000000 0.006578 3.000000
v 0.000000 1.336666 0.000000
v -0.750000 -1.000000 -2.911414
v 1.500000 -0.250000 -3.000000
v -1.500000 0.299646 2.902437
v 1.500000 -0.250000 3.000000
v -1.500000 -0.250000 -3.000000
v 1.500000 1.336666 0.522472
v 0.750000 -1.000000 2.893697
v -1.500000 1.336666 -1.176837
v -1.500000 -0.625000 -2.007864
v 0.750000 -1.000000 -2.911414
v 1.500000 0.501623 -1.953973
v -1.500000 -0.250000 3.000000
v 1.500000 0.299646 2.902437
v -1.500000 0.501623 -1.953973
v 1.500000 1.336666 -1.176837
v -0.750000 -1.000000 2.893697
v -1.500000 1.336666 0.522472
v 1.500000 -0.625000 -2.007864
v 0.750000 0.202350 -3.000000
v -0.750000 0.202350 -3.000000
v 0.000000 -0.250000 -3.000000
v -0.000000 0.501623 -1.953973
v 1.500000 0.202350 1.500000
v 1.500000 0.202350 -1.500000
v 1.500000 -0.250000 0.000000
v 1.500000 0.751390 0.000000
v -0.750000 -1.000000 0.000000
v 0.750000 -1.000000 0.000000
v -1.500000 0.202350 -1.500000
v -1.500000 0.202350 1.500000
v -1.500000 -0.250000 0.000000
v -1.500000 0.751390 0.000000
v -0.750000 0.006578 3.000000
v 0.750000 0.006578 3.000000
v 0.000000 -0.250000 3.000000
v -0.000000 0.299646 2.902437
v 0.000000 1.336666 0.522472
v 0.000000 1.336666 -1.176837
v 0.750000 1.336666 0.000000
v -0.750000 1.336666 0.000000
v -0.750000 1.336666 -1.176837
v 0.750000 1.336666 -1.176837
v 0.750000 1.336666 0.522472
v 0.750000 0.299646 2.902437
v 0.750000 -0.250000 3.000000
v -0.750000 -0.250000 3.000000
v -1.500000 0.476110 1.270384
v -1.500000 -0.250000 1.500000
v -1.500000 -0.250000 -1.500000
v 1.500000 0.751390 -1.176837
v 1.500000 -0.250000 -1.500000
v 1.500000 -0.250000 1.500000
v -0.750000 0.501623 -1.953973
v -0.750000 -0.250000 -3.000000
v 0.750000 -0.250000 -3.000000
v 0.750000 0.501623 -1.953973
v 1.500000 0.476110 1.270384
v -1.500000 0.751390 -1.176837
v -0.750000 0.299646 2.902437
v -0.750000 1.336666 0.522472
v -1.500000 -1.000000 2.250000
v -1.125000 -1.000000 -2.911414
v 1.500000 -0.625000 -3.000000
v 1.500000 -0.625000 3.000000
v -1.500000 -0.625000 -3.000000
v 1.125000 -1.000000 2.893697
v 1.500000 -1.000000 -2.250000
v -1.500000 -1.000000 -0.750000
v 0.375000 -1.000000 -2.911414
v -0.375000 -1.000000 2.893697
v 1.500000 -1.000000 0.750000
v 0.000000 -0.625000 -3.000000
v 1.500000 -0.625000 0.000000
v 0.000000 -1.000000 2.250000
v 0.000000 -1.000000 -0.750000
v -1.125000 -1.000000 0.000000
v 0.375000 -1.000000 0.000000
v -1.500000 -0.625000 0.000000
v 0.000000 -0.625000 3.000000
v -1.500000 -1.000000 0.750000
v -0.375000 -1.000000 -2.911414
v 0.375000 -1.000000 2.893697
v 1.500000 -1.000000 -0.750000
v -1.500000 -1.000000 -2.250000
v 1.125000 -1.000000 -2.911414
v -1.500000 -0.625000 3.000000
v -1.125000 -1.000000 2.893697
v 1.500000 -1.000000 2.250000
v 0.000000 -1.000000 0.750000
v 0.000000 -1.000000 -2.250000
v -0.375000 -1.000000 0.000000
v 1.125000 -1.000000 0.000000
v 0.375000 -0.250000 3.000000
v 1.125000 -0.250000 3.000000
v 0.750000 -0.625000 3.000000
v -1.125000 -0.250000 3.000000
v -0.375000 -0.250000 3.000000
v -0.750000 -0.625000 3.000000
v -1.500000 -0.250000 1.003947
v -1.500000 -0.250000 2.007864
v -1.500000 -0.625000 1.500000
v -1.500000 -0.250000 -2.007864
v -1.500000 -0.250000 -1.003947
v -1.500000 -0.625000 -1.500000
v 0.750000 -1.000000 -0.750000
v 0.750000 -1.000000 -2.250000
v -0.750000 -1.000000 -0.750000
v -0.750000 -1.000000 -2.250000
v -0.750000 -1.000000 2.250000
v -0.750000 -1.000000 0.750000
v 1.500000 -0.250000 -1.003947
v 1.500000 -0.250000 -2.007864
v 1.500000 -0.625000 -1.500000
v 1.500000 -0.250000 2.007864
v 1.500000 -0.250000 1.003947
v 1.500000 -0.625000 1.500000
v -0.375000 -0.250000 -3.000000
v -1.125000 -0.250000 -3.000000
v -0.750000 -0.625000 -3.000000
v 1.125000 -0.250000 -3.000000
v 0.375000 -0.250000 -3.000000
v 0.750000 -0.625000 -3.000000
v 0.750000 -1.000000 2.250000
v 0.750000 -1.000000 0.750000
v 1.125000 -1.000000 0.750000
v 0.375000 -1.000000 0.750000
v 0.375000 -1.000000 2.250000
v 0.375000 -0.625000 -3.000000
v 1.125000 -0.625000 -3.000000
v -1.125000 -0.625000 -3.000000
v -0.375000 -0.625000 -3.000000
v 1.500000 -0.625000 1.003947
v 1.500000 -0.625000 2.007864
v 1.500000 -0.625000 -2.007864
v 1.500000 -0.625000 -1.003947
v -0.375000 -1.000000 0.750000
v -1.125000 -1.000000 0.750000
v -1.125000 -1.000000 2.250000
v -0.375000 -1.000000 -2.250000
v -1.125000 -1.000000 -2.250000
v -1.125000 -1.000000 -0.750000
v 1.125000 -1.000000 -2.250000
v 0.375000 -1.000000 -2.250000
v 0.375000 -1.000000 -0.750000
v -1.500000 -0.625000 -1.003947
v -1.500000 -0.625000 -2.007864
v -1.500000 -0.625000 2.007864
v -1.500000 -0.625000 1.003947
v -0.375000 -0.625000 3.000000
v -1.125000 -0.625000 3.000000
v 1.125000 -0.625000 3.000000
v 0.375000 -0.625000 3.000000
v 1.125000 -1.000000 -0.750000
v -0.375000 -1.000000 -0.750000
v -0.375000 -1.000000 2.250000
v 1.125000 -1.000000 2.250000
vn -0.0000 -0.5607 -0.8280
vn -0.0000 -1.0000 -0.0000
vn -0.0000 -0.5424 0.8401
vn -0.0000 -0.0000 -1.0000
vn -1.0000 -0.0000 -0.0000
vn 1.0000 -0.0000 -0.0000
vn -0.0000 -0.0000 1.0000
vn -0.0000 1.0000 -0.0000
vn -0.0000 -0.5424 -0.8401
vn -0.0000 0.9942 0.1075
vn -0.0000 0.3159 0.9488
vn -0.0000 0.9614 -0.2751
vn -0.0000 0.6813 -0.7320
vn -0.0000 0.6560 0.7548
vn -0.0000 -0.2299 -0.9732
vn -0.0000 -0.2727 0.9621
vn -0.0000 -0.5607 0.8280
vt 0.406250 0.156250
vt 0.406250 0.593750
vt 0.375000 0.593750
vt 0.343750 0.593750
vt 0.312500 0.593750
vt 0.281250 0.593750
vt 0.250000 0.593750
vt 0.218750 0.593750
vt 0.187500 0.593750
vt 0.156250 0.593750
vt 0.375000 0.156250
vt 0.343750 0.718750
vt 0.375000 0.718750
vt 0.375000 0.750000
vt 0.343750 0.750000
vt 0.406250 0.218750
vt 0.375000 0.218750
vt 0.156250 0.531250
vt 0.187500 0.531250
vt 0.218750 0.531250
vt 0.250000 0.531250
vt 0.281250 0.531250
vt 0.312500 0.531250
vt 0.343750 0.531250
vt 0.375000 0.531250
vt 0.406250 0.531250
vt 0.437500 0.437500
vt 0.500000 0.437500
vt 0.500000 0.500000
vt 0.437500 0.500000
vt 0.437500 0.468750
vt 0.437500 0.312500
vt 0.500000 0.312500
vt 0.500000 0.375000
vt 0.437500 0.375000
vt 0.437500 0.343750
vt 0.562500 0.250000
vt 0.562500 0.187500
vt 0.625000 0.187500
vt 0.437500 0.687500
vt 0.500000 0.687500
vt 0.472951 0.750000
vt 0.437500 0.750000
vt 0.437500 0.718750
vt 0.437500 0.562500
vt 0.500000 0.562500
vt 0.500000 0.625000
vt 0.437500 0.625000
vt 0.437500 0.593750
vt 0.562500 0.562500
vt 0.625000 0.562500
vt 0.625000 0.625000
vt 0.562500 0.625000
vt 0.218750 0.718750
vt 0.250000 0.718750
vt 0.250000 0.750000
vt 0.218750 0.750000
vt 0.250000 0.625000
vt 0.218750 0.625000
vt 0.375000 0.625000
vt 0.343750 0.625000
vt 0.437500 0.187500
vt 0.500000 0.187500
vt 0.500000 0.250000
vt 0.437500 0.250000
vt 0.437500 0.218750
vt 0.437500 0.062500
vt 0.500000 0.062500
vt 0.500000 0.125000
vt 0.437500 0.125000
vt 0.437500 0.093750
vt 0.562500 0.062500
vt 0.625000 0.103230
vt 0.625000 0.125000
vt 0.562500 0.125000
vt 0.437500 0.937500
vt 0.472951 0.937500
vt 0.472951 1.000000
vt 0.437500 1.000000
vt 0.437500 0.968750
vt 0.437500 0.812500
vt 0.472951 0.812500
vt 0.472951 0.875000
vt 0.437500 0.875000
vt 0.437500 0.843750
vt 0.687500 0.562500
vt 0.750000 0.562500
vt 0.750000 0.625000
vt 0.687500 0.625000
vt 0.812500 0.562500
vt 0.875000 0.562500
vt 0.875000 0.625000
vt 0.812500 0.625000
vt 0.562500 0.500000
vt 0.406250 0.187500
vt 0.406250 0.562500
vt 0.406250 0.031250
vt 0.406250 0.718750
vt 0.312500 0.718750
vt 0.281250 0.718750
vt 0.187500 0.718750
vt 0.156250 0.718750
vt 0.375000 0.031250
vt 0.562500 0.812500
vt 0.562500 0.750000
vt 0.562500 0.687500
vt 0.562500 0.000000
vt 0.562500 0.937500
vt 0.562500 0.875000
vt 0.687500 0.646770
vt 0.625000 0.646770
vt 0.750000 0.646770
vt 0.406250 0.843750
vt 0.406250 0.875000
vt 0.406250 0.781250
vt 0.437500 0.781250
vt 0.406250 0.812500
vt 0.406250 0.968750
vt 0.406250 1.000000
vt 0.406250 0.906250
vt 0.437500 0.906250
vt 0.406250 0.937500
vt 0.472951 0.000000
vt 0.406250 0.093750
vt 0.406250 0.125000
vt 0.437500 0.031250
vt 0.406250 0.062500
vt 0.437500 0.000000
vt 0.406250 0.250000
vt 0.437500 0.156250
vt 0.312500 0.625000
vt 0.281250 0.625000
vt 0.187500 0.625000
vt 0.156250 0.625000
vt 0.187500 0.750000
vt 0.156250 0.750000
vt 0.406250 0.625000
vt 0.437500 0.531250
vt 0.406250 0.750000
vt 0.406250 0.656250
vt 0.437500 0.656250
vt 0.406250 0.687500
vt 0.562500 0.312500
vt 0.562500 0.375000
vt 0.562500 0.437500
vt 0.406250 0.343750
vt 0.406250 0.375000
vt 0.406250 0.281250
vt 0.437500 0.281250
vt 0.406250 0.312500
vt 0.406250 0.468750
vt 0.406250 0.500000
vt 0.406250 0.406250
vt 0.437500 0.406250
vt 0.406250 0.437500
vt 0.812500 0.646770
vt 0.875000 0.646770
vt 0.312500 0.750000
vt 0.281250 0.750000
vt 0.562500 1.000000
vt 0.343750 0.656250
vt 0.312500 0.656250
vt 0.375000 0.656250
vt 0.281250 0.656250
vt 0.250000 0.656250
vt 0.375000 0.406250
vt 0.375000 0.437500
vt 0.375000 0.375000
vt 0.375000 0.468750
vt 0.375000 0.500000
vt 0.375000 0.281250
vt 0.375000 0.312500
vt 0.375000 0.250000
vt 0.375000 0.343750
vt 0.218750 0.656250
vt 0.187500 0.656250
vt 0.125000 0.625000
vt 0.156250 0.656250
vt 0.125000 0.656250
vt 0.125000 0.718750
vt 0.125000 0.750000
vt 0.187500 0.500000
vt 0.218750 0.500000
vt 0.250000 0.500000
vt 0.125000 0.500000
vt 0.156250 0.500000
vt 0.125000 0.531250
vt 0.125000 0.593750
vt 0.312500 0.500000
vt 0.343750 0.500000
vt 0.281250 0.500000
vt 0.375000 0.125000
vt 0.375000 0.000000
vt 0.406250 0.000000
vt 0.375000 0.093750
vt 0.375000 0.906250
vt 0.375000 0.937500
vt 0.375000 0.875000
vt 0.375000 0.968750
vt 0.375000 1.000000
vt 0.375000 0.781250
vt 0.375000 0.812500
vt 0.375000 0.843750
s 0
usemtl Material
f 165/1/1 155/2/1 103/3/1 173/4/1 125/5/1 164/6/1 95/7/1 174/8/1 127/9/1 161/10/1 88/11/1
f 176/12/2 108/13/2 2/14/2 86/15/2
f 166/16/3 104/17/3 160/18/3 128/19/3 159/20/3 110/21/3 163/22/3 126/23/3 162/24/3 87/25/3 154/26/3
f 75/27/4 39/28/4 7/29/4 22/30/4 140/31/4
f 74/32/4 40/33/4 15/34/4 41/35/4 137/36/4
f 34/37/5 78/38/5 28/39/5
f 72/40/6 43/41/6 9/42/6 24/43/6 134/44/6
f 71/45/6 44/46/6 16/47/6 45/48/6 131/49/6
f 70/50/6 35/51/6 11/52/6 46/53/6
f 175/54/2 94/55/2 12/56/2 90/57/2
f 174/8/2 95/7/2 17/58/2 111/59/2
f 173/4/2 103/3/2 14/60/2 112/61/2
f 69/62/5 49/63/5 10/64/5 25/65/5 122/66/5
f 68/67/5 50/68/5 18/69/5 51/70/5 119/71/5
f 67/72/5 37/73/5 13/74/5 52/75/5
f 66/76/7 53/77/7 8/78/7 32/79/7 116/80/7
f 65/81/7 54/82/7 19/83/7 55/84/7 113/85/7
f 62/86/8 58/87/8 20/88/8 59/89/8
f 61/90/8 28/91/8 13/92/8 60/93/8
f 58/87/8 61/90/8 60/93/8 20/88/8
f 70/50/6 31/94/6 35/51/6
f 124/95/2 133/96/2 155/2/2 165/1/2
f 35/51/8 62/86/8 59/89/8 11/52/8
f 167/97/9 153/98/9 108/13/9 176/12/9 143/99/9 147/100/9 94/55/9 175/54/9 129/101/9 158/102/9 81/103/9
f 64/104/10 33/105/10 77/106/10 67/72/10 23/107/10 79/108/10 56/109/10
f 11/52/8 59/89/8 63/110/8 26/111/8
f 59/89/8 20/88/8 57/112/8 63/110/8
f 54/82/11 64/104/11 56/109/11 19/83/11
f 9/42/11 33/105/11 64/104/11 54/82/11
f 172/113/7 113/85/7 55/84/7 99/114/7
f 171/115/7 114/116/7 65/81/7 115/117/7
f 24/43/7 9/42/7 54/82/7 65/81/7 114/116/7
f 170/118/7 116/80/7 32/79/7 106/119/7
f 169/120/7 117/121/7 66/76/7 118/122/7
f 55/84/7 19/83/7 53/77/7 66/76/7 117/121/7
f 50/68/5 67/72/5 52/75/5 18/69/5
f 8/123/5 23/107/5 67/72/5 50/68/5
f 168/124/5 119/71/5 51/70/5 98/125/5
f 167/97/5 120/126/5 68/67/5 121/127/5
f 32/128/5 8/123/5 50/68/5 68/67/5 120/126/5
f 166/16/5 122/66/5 25/65/5 85/129/5
f 165/1/5 123/130/5 69/62/5 124/95/5
f 51/70/5 18/69/5 49/63/5 69/62/5 123/130/5
f 164/6/2 125/5/2 48/131/2 97/132/2
f 161/10/2 127/9/2 47/133/2 96/134/2
f 158/102/2 129/101/2 36/135/2 107/136/2
f 44/46/6 70/50/6 46/53/6 16/47/6
f 7/29/6 31/94/6 70/50/6 44/46/6
f 166/16/2 154/26/2 133/96/2 124/95/2
f 155/2/6 131/49/6 45/48/6 93/137/6
f 154/26/6 132/138/6 71/45/6 133/96/6
f 22/30/6 7/29/6 44/46/6 71/45/6 132/138/6
f 153/98/6 134/44/6 24/43/6 84/139/6
f 152/140/6 135/141/6 72/40/6 136/142/6
f 45/48/6 16/47/6 43/41/6 72/40/6 135/141/6
f 40/33/12 73/143/12 42/144/12 15/34/12
f 10/64/12 34/37/12 73/143/12 40/33/12
f 28/91/13 61/90/13 58/87/13 62/86/13 35/51/13 31/94/13 76/145/13 42/144/13 73/143/13 34/37/13
f 151/146/4 137/36/4 41/35/4 92/147/4
f 150/148/4 138/149/4 74/32/4 139/150/4
f 25/65/4 10/64/4 40/33/4 74/32/4 138/149/4
f 149/151/4 140/31/4 22/30/4 83/152/4
f 148/153/4 141/154/4 75/27/4 142/155/4
f 41/35/4 15/34/4 39/28/4 75/27/4 141/154/4
f 39/28/12 76/145/12 31/94/12 7/29/12
f 15/34/12 42/144/12 76/145/12 39/28/12
f 63/110/14 57/112/14 80/156/14 37/157/14 67/72/14 77/106/14 26/111/14
f 43/41/6 77/106/6 33/105/6 9/42/6
f 16/47/6 46/53/6 77/106/6 43/41/6
f 46/53/6 11/52/6 26/111/6 77/106/6
f 147/100/2 143/99/2 27/158/2 102/159/2
f 49/63/5 78/38/5 34/37/5 10/64/5
f 18/69/5 52/75/5 78/38/5 49/63/5
f 52/75/5 13/74/5 28/39/5 78/38/5
f 53/77/11 79/108/11 23/160/11 8/78/11
f 19/83/11 56/109/11 79/108/11 53/77/11
f 20/88/8 60/93/8 80/156/8 57/112/8
f 60/93/8 13/92/8 37/157/8 80/156/8
f 48/131/2 112/61/2 145/161/2 144/162/2
f 112/61/2 14/60/2 91/163/2 145/161/2
f 17/58/2 97/132/2 146/164/2 109/165/2
f 97/132/2 48/131/2 144/162/2 146/164/2
f 94/55/2 147/100/2 102/159/2 12/56/2
f 89/166/15 148/153/15 142/155/15 30/167/15
f 6/168/15 92/147/15 148/153/15 89/166/15
f 92/147/4 41/35/4 141/154/4 148/153/4
f 105/169/15 149/151/15 83/152/15 1/170/15
f 30/167/15 142/155/15 149/151/15 105/169/15
f 142/155/4 75/27/4 140/31/4 149/151/4
f 82/171/15 150/148/15 139/150/15 21/172/15
f 3/173/15 85/129/15 150/148/15 82/171/15
f 85/129/4 25/65/4 138/149/4 150/148/4
f 101/174/15 151/146/15 92/147/15 6/168/15
f 21/172/15 139/150/15 151/146/15 101/174/15
f 139/150/4 74/32/4 137/36/4 151/146/4
f 14/60/6 93/137/6 152/140/6 91/163/6
f 93/137/6 45/48/6 135/141/6 152/140/6
f 108/13/6 153/98/6 84/139/6 2/14/6
f 136/142/6 72/40/6 134/44/6 153/98/6
f 1/170/6 83/152/6 154/26/6 87/25/6
f 83/152/6 22/30/6 132/138/6 154/26/6
f 103/3/6 155/2/6 93/137/6 14/60/6
f 133/96/6 71/45/6 131/49/6 155/2/6
f 47/133/2 111/59/2 156/175/2 130/176/2
f 111/59/2 17/58/2 109/165/2 156/175/2
f 5/177/2 96/134/2 157/178/2 100/179/2
f 96/134/2 47/133/2 130/176/2 157/178/2
f 81/180/2 158/102/2 107/136/2 4/181/2
f 21/182/2 101/183/2 159/20/2 128/19/2
f 101/183/2 6/184/2 110/21/2 159/20/2
f 3/185/2 82/186/2 160/18/2 104/187/2
f 82/186/2 21/182/2 128/19/2 160/18/2
f 88/188/2 161/10/2 96/134/2 5/177/2
f 30/189/2 105/190/2 162/24/2 126/23/2
f 105/190/2 1/170/2 87/25/2 162/24/2
f 6/184/2 89/191/2 163/22/2 110/21/2
f 89/191/2 30/189/2 126/23/2 163/22/2
f 95/7/2 164/6/2 97/132/2 17/58/2
f 5/192/5 98/125/5 165/1/5 88/11/5
f 98/125/5 51/70/5 123/130/5 165/1/5
f 104/17/5 166/16/5 85/129/5 3/173/5
f 124/95/5 69/62/5 122/66/5 166/16/5
f 4/193/5 106/194/5 167/97/5 81/103/5
f 106/194/5 32/128/5 120/126/5 167/97/5
f 100/195/5 168/124/5 98/125/5 5/192/5
f 121/127/5 68/67/5 119/71/5 168/124/5
f 90/196/16 169/120/16 118/122/16 36/197/16
f 12/198/16 99/114/16 169/120/16 90/196/16
f 99/114/7 55/84/7 117/121/7 169/120/7
f 107/199/16 170/118/16 106/119/16 4/200/16
f 36/197/16 118/122/16 170/118/16 107/199/16
f 118/122/7 66/76/7 116/80/7 170/118/7
f 86/201/16 171/115/16 115/117/16 27/202/16
f 2/14/16 84/139/16 171/115/16 86/201/16
f 84/139/7 24/43/7 114/116/7 171/115/7
f 102/203/16 172/113/16 99/114/16 12/198/16
f 27/202/16 115/117/16 172/113/16 102/203/16
f 115/117/7 65/81/7 113/85/7 172/113/7
f 125/5/2 173/4/2 112/61/2 48/131/2
f 127/9/2 174/8/2 111/59/2 47/133/2
f 129/101/2 175/54/2 90/57/2 36/135/2
f 143/99/2 176/12/2 86/15/2 27/158/2
f 168/124/17 100/195/17 157/178/17 130/176/17 156/175/17 109/165/17 146/164/17 144/162/17 145/161/17 91/163/17 152/140/17
f 168/124/2 152/140/2 136/142/2 121/127/2
f 167/97/2 121/127/2 136/142/2 153/98/2
l 38 29
